Coordinates
version=1
nRows=11
nColumns=40
inDegrees=yes

Units are S.I. units (second, meters, Newtons, ...)
Angles are in degrees.

endheader
time	pelvis_tilt	pelvis_list	pelvis_rotation	pelvis_tx	pelvis_ty	pelvis_tz	hip_flexion_r	hip_adduction_r	hip_rotation_r	knee_angle_r	knee_angle_r_beta	ankle_angle_r	subtalar_angle_r	mtp_angle_r	hip_flexion_l	hip_adduction_l	hip_rotation_l	knee_angle_l	knee_angle_l_beta	ankle_angle_l	subtalar_angle_l	mtp_angle_l	lumbar_extension	lumbar_bending	lumbar_rotation	arm_flex_r	arm_add_r	arm_rot_r	elbow_flex_r	pro_sup_r	wrist_flex_r	wrist_dev_r	arm_flex_l	arm_add_l	arm_rot_l	elbow_flex_l	pro_sup_l	wrist_flex_l	wrist_dev_l
     39.71000000	     -4.94690338	     -2.71560052	      3.53023675	      0.99555511	      0.92720652	      0.41395326	     34.64699580	     -8.02507711	     -7.06907765	     73.20366700	     73.20366700	     -2.98012746	    -18.42412772	      5.01440908	     17.42383067	     -2.57077181	     -4.61682871	     23.17078434	     23.17078434	     13.18747321	    -10.24660807	     -1.30241074	    -11.99504804	      4.14492529	      1.78430877	     -1.26059630	    -14.91407350	     -3.79591501	     63.12805122	     45.77346431	      0.00000000	      0.00000000	      1.76488552	    -11.73641906	     -6.38924586	     63.33401134	     46.62680511	      0.00000000	      0.00000000
     39.72200000	     -4.95021014	     -2.80848548	      3.26946353	      0.99446580	      0.92787024	      0.41367083	     35.82389076	     -7.90505114	     -7.13360859	     72.41130761	     72.41130761	     -2.67216173	    -18.41479141	      4.95354907	     16.64310120	     -2.64014970	     -4.59557258	     22.60050867	     22.60050867	     13.29761851	    -10.49236451	     -1.20250768	    -12.20775868	      4.29126568	      2.10722692	     -1.90075573	    -14.81080720	     -4.01130734	     58.84609645	     45.90673034	      0.00000000	      0.00000000	      2.50372115	    -11.93631746	     -5.94194906	     65.75805468	     46.67241768	      0.00000000	      0.00000000
     39.73400000	     -4.92751976	     -2.92143212	      3.02579594	      0.99343990	      0.92841505	      0.41349257	     36.89156887	     -7.74297144	     -7.23256016	     71.50010630	     71.50010630	     -2.39738045	    -18.40460955	      4.95612289	     15.89960969	     -2.82819886	     -4.93087287	     22.16626603	     22.16626603	     13.51631462	    -10.15265501	     -1.41935248	    -12.41503967	      4.43127324	      2.22938670	     -2.26099195	    -14.70554254	     -3.92961691	     54.32565153	     46.03534666	      0.00000000	      0.00000000	      3.08191345	    -12.16728072	     -5.82844180	     68.38481335	     46.75297767	      0.00000000	      0.00000000
     39.74600000	     -4.87931714	     -2.99569058	      2.76869274	      0.99241217	      0.92897467	      0.41332279	     37.82294969	     -7.58714256	     -7.28317321	     70.37054457	     70.37054457	     -2.13594923	    -18.34368493	      5.01305040	     15.10853607	     -2.93523355	     -5.14681926	     21.68904196	     21.68904196	     13.72884210	    -10.00772224	     -1.44401942	    -12.70631716	      4.56096569	      2.72975115	     -3.27200459	    -14.87422221	     -3.70267770	     51.26798233	     46.11554002	      0.00000000	      0.00000000	      4.11257178	    -12.05780127	     -5.97492553	     70.47863863	     46.82562917	      0.00000000	      0.00000000
     39.75800000	     -4.88116044	     -3.11087740	      2.58326738	      0.99137093	      0.92943292	      0.41322701	     38.66513112	     -7.40947021	     -7.40323837	     68.97075540	     68.97075540	     -1.89608868	    -18.24383081	      5.02839815	     14.39699218	     -3.09462126	     -5.39273217	     21.21422787	     21.21422787	     13.89480180	     -9.75276756	     -1.59375963	    -12.87448716	      4.69282203	      2.34285090	     -2.72090748	    -14.55823237	     -3.57173207	     45.65305126	     46.28248717	      0.00000000	      0.00000000	      4.26142760	    -12.57880398	     -5.90781074	     73.46675266	     46.92217514	      0.00000000	      0.00000000
     39.77000000	     -4.86330287	     -3.20380524	      2.40352572	      0.99038583	      0.92990983	      0.41313531	     39.32292564	     -7.21895449	     -7.47625589	     67.23148945	     67.23148945	     -1.62326472	    -18.11937296	      5.03542024	     13.63157906	     -3.19720041	     -5.52278465	     20.67806631	     20.67806631	     14.08784877	     -9.60388402	     -1.55635187	    -13.12438198	      4.88783063	      2.83023462	     -3.92020164	    -14.77951819	     -3.37909043	     43.75836017	     46.32723703	      0.00000000	      0.00000000	      5.35083027	    -12.32728309	     -6.21650330	     75.21608594	     46.99248450	      0.00000000	      0.00000000
     39.78200000	     -4.92903579	     -3.27472763	      2.26869755	      0.98936463	      0.93016858	      0.41319001	     39.91017479	     -7.08203556	     -7.58240277	     65.14728559	     65.14728559	     -1.50963729	    -17.94489865	      4.43137056	     13.00798018	     -3.30075245	     -5.72563809	     20.22158025	     20.22158025	     14.26117477	     -9.32134577	     -1.72658109	    -13.23985071	      4.97010393	      2.34494012	     -3.35623006	    -14.51937187	     -3.21418389	     38.85011128	     46.47098426	      0.00000000	      0.00000000	      5.34635682	    -12.90350464	     -6.27133845	     78.45340322	     47.10304544	      0.00000000	      0.00000000
     39.79400000	     -4.95180525	     -3.33419695	      2.14918037	      0.98837388	      0.93046760	      0.41330824	     40.28274887	     -6.90246405	     -7.62008420	     62.69239163	     62.69239163	     -1.22847888	    -17.64892933	      4.20600165	     12.30180145	     -3.36680389	     -5.83385224	     19.69284317	     19.69284317	     14.42803184	     -9.16353131	     -1.70255910	    -13.44938519	      5.10148926	      2.63040306	     -4.40338572	    -14.67736021	     -3.07245235	     37.16883113	     46.50753494	      0.00000000	      0.00000000	      6.34141582	    -12.73709628	     -6.68659704	     80.32036898	     47.18746757	      0.00000000	      0.00000000
     39.80600000	     -5.04674438	     -3.41800894	      2.10074245	      0.98746738	      0.93058221	      0.41349147	     40.46803999	     -6.76575225	     -7.79733447	     59.75455561	     59.75455561	     -1.27335560	    -17.36658565	      2.70916582	     11.70360522	     -3.47111984	     -5.92784635	     19.20487876	     19.20487876	     14.58092122	     -8.89440213	     -1.88177555	    -13.55559073	      5.23182266	      2.08075435	     -4.24792575	    -14.57037717	     -2.95054597	     33.92067513	     46.58610668	      0.00000000	      0.00000000	      6.32214581	    -13.19624545	     -7.08269292	     83.40741279	     47.32835896	      0.00000000	      0.00000000
     39.81800000	     -5.12296251	     -3.47582277	      2.02199355	      0.98664689	      0.93069013	      0.41384244	     40.47046177	     -6.55928007	     -7.87073686	     56.50155182	     56.50155182	     -0.82808274	    -16.79699256	      2.42647914	     11.04648869	     -3.54860144	     -6.02929146	     18.66732516	     18.66732516	     14.74443588	     -8.66373279	     -1.89251557	    -13.69647696	      5.35361882	      2.42087284	     -5.38452101	    -14.75718694	     -2.86584775	     32.86767858	     46.60385599	      0.00000000	      0.00000000	      7.27144459	    -13.00213783	     -7.34573747	     85.26637443	     47.39932604	      0.00000000	      0.00000000
     39.83000000	     -5.30750572	     -3.52339239	      1.99762350	      0.98592204	      0.93048073	      0.41425895	     40.32244005	     -6.42428312	     -8.09613282	     52.78059073	     52.78059073	     -0.91260067	    -16.21920888	      0.74227545	     10.54189562	     -3.63572747	     -6.20184666	     18.20150808	     18.20150808	     14.91884409	     -8.29000576	     -2.18804174	    -13.69360074	      5.44169343	      1.98068983	     -5.86361988	    -14.76875284	     -2.86950609	     31.37593358	     46.62788328	      0.00000000	      0.00000000	      7.34066083	    -13.50957176	     -7.55024315	     88.26363649	     47.51733101	      0.00000000	      0.00000000
